<svg xmlns="http://www.w3.org/2000/svg" id="Layer_1" viewBox="0 0 5669.29 1116.93"><defs><style>.cls-1,.cls-2{fill:#e83c49;stroke-width:0}.cls-2{fill:#1d1d1b}</style></defs><path d="M91.78 116.05v178.09h219.8v699.77h233.66V294.14h207.18l23.99-178.09zM1687.11 116.05v332.17H1454.7V116.05h-233.69v877.86h233.69V628.87h232.41v365.04h233.68V116.05zM2434.86 116.05v877.86h553.23V828.45h-319.55V628.87H2930V468.46h-261.46V281.51h299.36l23.99-165.46z" class="cls-1"/><path d="M3654.17 474.85V317.57H3535.3v157.28H3459V115.67h76.3v141.7h118.87v-141.7h76.29v359.18zM3878.63 268.53c-9.18 14.71-13.76 37.62-13.76 68.78s4.58 54.06 13.76 68.76c9.18 14.71 22.91 22.07 41.27 22.07s32.09-7.36 41.27-22.07 13.76-37.64 13.76-68.76-4.53-54.07-13.49-68.78c-9.02-14.71-22.67-22.05-41-22.05s-32.62 7.34-41.8 22.05m138.34-38.42c23.16 25.79 34.77 61.51 34.77 107.2 0 29.04-5.27 54.57-15.84 76.55-10.55 21.98-25.79 39.01-45.67 51.13-19.89 12.1-43.35 18.16-70.33 18.16-41.18 0-73.45-12.89-96.79-38.66-23.37-25.79-35.05-61.51-35.05-107.18 0-29.08 5.27-54.6 15.83-76.57 10.55-21.98 25.79-39 45.67-51.13 19.89-12.1 43.52-18.16 70.86-18.16 41.16 0 73.34 12.89 96.54 38.66M4333.05 474.85h-63.85l-3.61-36.85c-9.71 15.24-21.47 26.56-35.3 33.99-13.84 7.43-29.94 11.15-48.3 11.15-24.91 0-43.93-7.52-57.09-22.56-13.16-15.06-19.73-36.07-19.73-63.07V199.76h73.71v188.41c0 14.53 2.43 24.82 7.27 30.88 4.83 6.06 12.47 9.09 22.83 9.09 19.73 0 36.51-11.94 50.36-35.83V199.76h73.7v275.09ZM4596.71 224.67l-28.02 42.04c-23.2-14.53-46.04-21.79-68.5-21.79-12.12 0-21.47 2.25-28.04 6.75-6.55 4.49-9.86 10.55-9.86 18.16 0 5.55 1.48 10.22 4.42 14.02s8.46 7.43 16.59 10.9c8.14 3.45 20.33 7.61 36.6 12.45 29.08 7.96 50.69 18.6 64.87 31.92 14.2 13.32 21.29 31.58 21.29 54.76 0 18.34-5.28 34.26-15.85 47.75-10.53 13.49-24.82 23.8-42.78 30.88-18 7.1-38.08 10.64-60.22 10.64s-44.3-3.54-63.34-10.64c-19.04-7.08-35.28-16.87-48.79-29.33l36.34-40.48c23.16 18 47.75 26.98 73.71 26.98 13.83 0 24.83-2.68 32.97-8.03 8.1-5.37 12.19-12.73 12.19-22.07 0-7.27-1.58-12.96-4.7-17.14-3.08-4.16-8.81-8.03-17.1-11.66-8.3-3.65-21.28-7.87-38.93-12.72-27.71-7.61-48.21-18.42-61.51-32.44-13.33-14.02-19.99-31.41-19.99-52.15 0-15.59 4.51-29.59 13.51-42.06 9-12.45 21.68-22.21 38.13-29.31 16.43-7.1 35.56-10.66 57.35-10.66 38.75 0 71.99 11.08 99.66 33.22M4813.68 310.32c0-45.69-16.45-68.52-49.32-68.52-15.22 0-27.05 5.62-35.56 16.86-8.47 11.26-13.58 29.5-15.31 54.76h100.19zm71.62 49.3h-171.8c2.43 24.91 9.18 42.57 20.26 52.95 11.06 10.37 26.12 15.57 45.16 15.57 11.77 0 22.83-1.9 33.22-5.72 10.38-3.79 21.63-9.85 33.73-18.16l30.63 41.52c-30.81 24.92-65.58 37.38-104.33 37.38-43.26 0-76.5-12.98-99.68-38.93-23.16-25.94-34.77-61.07-34.77-105.36 0-28.02 4.95-53.19 14.8-75.51 9.86-22.32 24.22-39.88 43.08-52.7 18.86-12.79 41.27-19.2 67.21-19.2 39.12 0 69.56 12.29 91.35 36.85 21.82 24.57 32.71 58.85 32.71 102.78 0 3.45-.51 12.98-1.57 28.55M3531.4 787.57c-9.18 14.71-13.76 37.62-13.76 68.78s4.58 54.06 13.76 68.76c9.18 14.73 22.91 22.07 41.27 22.07s32.09-7.34 41.27-22.07c9.16-14.71 13.74-37.62 13.74-68.76s-4.51-54.07-13.47-68.78c-9.02-14.71-22.69-22.05-41-22.05s-32.62 7.34-41.8 22.05m138.34-38.42c23.16 25.79 34.77 61.51 34.77 107.2 0 29.06-5.27 54.57-15.84 76.55-10.55 21.98-25.79 39.01-45.69 51.13-19.89 12.1-43.33 18.16-70.31 18.16-41.2 0-73.45-12.89-96.79-38.66-23.37-25.77-35.05-61.51-35.05-107.18 0-29.08 5.27-54.58 15.83-76.57 10.55-21.96 25.77-39 45.67-51.13 19.89-12.1 43.52-18.16 70.86-18.16 41.16 0 73.34 12.89 96.54 38.66M3851.65 664.81c-5.37 5.9-8.05 15.41-8.05 28.55v25.43h65.42l-8.31 51.91h-57.1v223.18h-73.71V770.7h-43.58v-51.91h43.58v-27.51c0-26.63 8.75-48.35 26.21-65.14 17.49-16.79 42.33-25.19 74.49-25.19 25.63 0 49.83 5.55 72.69 16.63l-20.26 48.79c-14.87-6.92-29.77-10.39-44.61-10.39-12.47 0-21.4 2.94-26.75 8.82M4070.93 634.72v359.16h215.39v-56.05h-139.07V838.7h113.13v-55.04h-113.13v-93.41h129.74l8.29-55.53zM4485.65 718.8l-55.55 217.48-54.5-217.48h-79.93l89.8 275.09h87.71l88.27-275.09zM4752.45 829.36c0-45.69-16.45-68.52-49.32-68.52-15.24 0-27.07 5.62-35.56 16.86-8.47 11.26-13.58 29.5-15.31 54.76h100.19zm71.62 49.3h-171.8c2.43 24.91 9.18 42.57 20.26 52.95 11.06 10.37 26.12 15.57 45.14 15.57 11.77 0 22.84-1.9 33.24-5.71 10.38-3.8 21.61-9.86 33.73-18.18l30.61 41.52q-46.185 37.38-104.31 37.38c-43.26 0-76.5-12.98-99.69-38.93-23.14-25.94-34.77-61.07-34.77-105.36 0-28.02 4.95-53.19 14.81-75.51s24.2-39.88 43.08-52.7c18.85-12.79 41.27-19.2 67.21-19.2 39.1 0 69.54 12.29 91.33 36.87 21.82 24.55 32.73 58.83 32.73 102.76 0 3.47-.53 12.98-1.57 28.55M5089.29 732.56c13.49 14.71 20.26 35.03 20.26 60.98V993.9h-73.7V806c0-14.87-2.54-25.35-7.52-31.39-5.04-6.06-12.56-9.09-22.6-9.09s-19.82 3.21-28.27 9.6c-8.51 6.41-16.71 16.01-24.68 28.82V993.9h-73.7V718.81h63.85l5.69 34.79c11.41-14.2 23.95-24.94 37.64-32.2 13.67-7.26 29.15-10.9 46.46-10.9 24.2 0 43.08 7.36 56.56 22.07M5344.15 980.92c-10.04 6.92-21.37 12.21-34.01 15.83-12.61 3.63-25.17 5.44-37.61 5.44-28.39-.35-49.86-8.47-64.38-24.39-14.53-15.91-21.79-39.28-21.79-70.07V770.7h-41.02v-51.91h41.02v-60.2l73.69-8.81v69.01h63.32l-7.27 51.91h-56.05v135.48c0 13.14 2.25 22.67 6.73 28.55 4.53 5.87 11.43 8.81 20.77 8.81s19.74-3.12 31.14-9.34l25.45 46.71ZM5567.83 743.71l-28.02 42.04c-23.2-14.53-46.03-21.79-68.5-21.79-12.12 0-21.47 2.25-28.04 6.73-6.55 4.51-9.85 10.57-9.85 18.18 0 5.53 1.46 10.22 4.4 14.02s8.46 7.43 16.59 10.89c8.14 3.47 20.33 7.63 36.6 12.47q43.59 11.94 64.89 31.92c14.18 13.32 21.28 31.58 21.28 54.76 0 18.34-5.28 34.26-15.83 47.75s-24.83 23.8-42.82 30.88c-17.98 7.1-38.05 10.64-60.2 10.64s-44.3-3.54-63.34-10.64c-19.04-7.08-35.28-16.87-48.79-29.33l36.34-40.48c23.16 18 47.75 26.98 73.71 26.98 13.83 0 24.83-2.68 32.97-8.03 8.1-5.37 12.19-12.73 12.19-22.07 0-7.27-1.57-12.98-4.7-17.14-3.08-4.16-8.81-8.05-17.1-11.66-8.3-3.65-21.28-7.87-38.93-12.73-27.69-7.59-48.21-18.42-61.51-32.43-13.32-14.02-19.99-31.41-19.99-52.15 0-15.59 4.51-29.59 13.51-42.06 9-12.45 21.68-22.21 38.13-29.31 16.43-7.1 35.56-10.66 57.35-10.66 38.75 0 71.99 11.08 99.66 33.22" class="cls-2"/></svg>